<svg width="119" height="96" viewBox="0 0 119 96" fill="none" xmlns="http://www.w3.org/2000/svg">
<g clip-path="url(#clip0)">
<path d="M46.5144 19.8953H61.4973V50.3368H78.5775C79.2519 50.4095 79.9338 50.3079 80.5576 50.0415C81.1815 49.7752 81.7264 49.3531 82.1403 48.8158C82.5516 48.2794 82.8167 47.6455 82.9096 46.976C83.0026 46.3066 82.9201 45.6244 82.6704 44.9964C80.918 38.9486 73.489 36.5768 66.3514 36.5768V19.9205L97.6489 6.70478V22.7424L83.5532 28.2886C89.9275 31.8343 94.8067 36.1092 96.3291 41.1178C98.3005 47.8697 97.1681 56.1852 91.4005 61.5815C86.9101 65.7776 82.9015 65.3604 78.5731 65.6484L46.5166 65.6746V65.7009H46.4355L46.5144 19.9008V19.8953Z" fill="#F01436"/>
<path d="M24.3031 21.4535V47.3769C24.2865 48.2593 23.9419 49.1039 23.3365 49.7462C22.7312 50.3885 21.9083 50.7825 21.0283 50.8514L13.2401 21.4535H-0.000244141L7.86576 50.6499H7.81318L7.86576 50.8514H2.17052L5.1649 65.6768H10.9587V65.7009H21.3087C31.1899 65.6308 39.1611 57.9263 39.1611 48.4358V21.4535H24.3031Z" fill="#F01436"/>
<path d="M118.285 65.6987H103.223V24.8886L118.285 18.5036V65.6987Z" fill="#F01436"/>
<path d="M105.657 17.6987H105.64C105.147 17.6936 104.668 17.538 104.266 17.2529C103.865 16.9677 103.56 16.5666 103.392 16.1033C103.153 15.4846 103.161 14.7974 103.415 14.1845C103.669 13.5716 104.149 13.08 104.756 12.8117C105.484 12.5116 105.775 12.3857 106.416 12.1032C105.205 10.6499 104.572 8.8012 104.639 6.91064C104.647 5.07197 105.374 3.30948 106.665 1.9995C107.286 1.36697 108.026 0.864386 108.843 0.521084C109.66 0.177783 110.537 0.000641445 111.424 0L111.546 0C112.438 0.0105251 113.319 0.200118 114.136 0.557519C114.953 0.914921 115.69 1.43284 116.303 2.08053C116.932 2.70143 117.429 3.44245 117.765 4.25946C118.101 5.07647 118.27 5.95276 118.26 6.83618C118.356 7.94027 118.192 9.05145 117.781 10.0806C117.369 11.1098 116.723 12.0282 115.892 12.7624C115.696 12.9376 115.38 13.1906 115.28 13.2661C112.935 14.7408 110.449 15.9784 107.859 16.9607L106.567 17.5202C106.279 17.6383 105.969 17.699 105.657 17.6987ZM111.495 9.57043H111.514C112.154 9.55612 112.764 9.29132 113.212 8.8328C113.66 8.37429 113.911 7.75855 113.91 7.1176C113.921 6.63215 113.789 6.15419 113.53 5.74318C113.272 5.33217 112.898 5.00627 112.455 4.80602C112.02 4.61353 111.536 4.55935 111.069 4.65081C110.602 4.74227 110.174 4.97495 109.843 5.31739C109.502 5.66698 109.269 6.10757 109.172 6.58633C109.075 7.06509 109.118 7.5617 109.296 8.01661C109.463 8.46693 109.763 8.85621 110.155 9.13347C110.547 9.41073 111.014 9.56303 111.495 9.57043Z" fill="#02A0A4"/>
<path d="M12.653 79.6668L11.0419 78.2432L9.64331 79.9361L11.3015 81.3596L12.653 79.6668Z" fill="#F01436"/>
<path d="M14.1689 81.2348L15.5434 79.5671L13.9082 78.1436L12.5337 79.8376L14.1689 81.2348Z" fill="#F01436"/>
<path d="M20.3055 85.9686C20.3055 85.1594 20.2814 84.4969 20.2584 83.9822C20.2354 83.4676 20.1872 82.8544 20.116 82.1426L18.1019 82.5105L18.4808 85.7244C18.2003 85.8375 17.9054 85.9112 17.6046 85.9434C17.0854 86.0012 16.563 86.0257 16.0406 86.0168C15.3769 86.0168 14.9038 86.0168 14.6168 85.9927C14.392 85.9744 14.1696 85.9333 13.9531 85.87L13.8107 82.8292L11.7966 83.0482L12.1525 85.7222C11.8808 85.8644 11.5823 85.9479 11.2763 85.9675C10.9204 85.9927 10.4231 86.0168 9.80761 86.0168H5.71033L5.28428 88.7642C5.85488 88.7461 6.42595 88.779 6.99066 88.8627C7.34661 88.9361 7.512 89.0817 7.512 89.3281C7.10924 89.6189 6.64871 89.8198 6.16157 89.9172C5.51266 90.0462 4.85158 90.1038 4.19014 90.0891C3.61536 90.0959 3.04203 90.03 2.48376 89.8931C2.00952 89.7705 1.79704 89.5 1.79704 89.1332C1.82223 88.533 1.88552 87.935 1.98652 87.3428C2.1048 86.5336 2.22309 85.7244 2.36547 84.89L0.754376 84.522C0.411354 86.1833 0.15835 87.8618 -0.00352835 89.5504C-0.0349938 89.9957 0.0244115 90.4427 0.171079 90.8644C0.317747 91.2861 0.548616 91.6735 0.849662 92.0032C1.71948 92.6324 2.79011 92.9204 3.85828 92.8124C4.83492 92.8389 5.80776 92.6807 6.72561 92.346C7.46594 92.0849 8.11565 91.6166 8.59738 90.9969C9.03469 90.418 9.26807 89.7107 9.26109 88.9854C9.26755 88.9028 9.25939 88.8198 9.237 88.7401H9.80542C10.3679 88.7531 10.9306 88.7201 11.4877 88.6415C11.8357 88.5943 12.1726 88.4865 12.4833 88.3229C12.7264 88.1646 12.9226 87.9442 13.0517 87.6845C13.126 87.8843 13.2462 88.0639 13.4025 88.2088C13.5589 88.3537 13.7471 88.4599 13.952 88.5189C14.6385 88.706 15.3492 88.7887 16.0603 88.7642C17.1952 88.855 18.3301 88.5893 19.3066 88.0042C19.6299 87.7753 19.8908 87.4691 20.0652 87.1135C20.2397 86.7579 20.3223 86.3643 20.3055 85.9686Z" fill="#F01436"/>
<path d="M20.163 78.4392L18.3624 76.869L16.8696 78.7305L18.6702 80.2997L20.163 78.4392Z" fill="#F01436"/>
<path d="M31.3005 81.2348L32.675 79.5671L31.0398 78.1436L29.6653 79.8365L31.3005 81.2348Z" fill="#F01436"/>
<path d="M29.8078 79.6668L28.1726 78.2432L26.7981 79.9361L28.4333 81.3596L29.8078 79.6668Z" fill="#F01436"/>
<path d="M37.5084 79.5189L35.7078 77.9487L34.1909 79.8102L35.9915 81.3805L37.5084 79.5189Z" fill="#F01436"/>
<path d="M39.7349 90.5074L38.3604 92.2244L39.9956 93.6479L41.3701 91.931L39.7349 90.5074Z" fill="#F01436"/>
<path d="M41.2278 92.1018L42.8389 93.5253L44.2364 91.8335L42.6012 90.41L41.2278 92.1018Z" fill="#F01436"/>
<path d="M39.4503 88.7412C40.5851 88.8318 41.72 88.5662 42.6966 87.9812C43.0206 87.7589 43.2822 87.4573 43.4565 87.1051C43.6308 86.753 43.7119 86.3621 43.6922 85.9697C43.6922 85.1605 43.6681 84.498 43.6451 83.9833C43.6221 83.4687 43.5739 82.8554 43.5027 82.1437L41.4885 82.5116L41.8675 85.7255C41.5869 85.8386 41.2921 85.9123 40.9913 85.9445C40.4721 86.0023 39.9497 86.0268 39.4273 86.0179C38.7636 86.0179 38.2904 86.0179 38.0035 85.9938C37.7787 85.9755 37.5563 85.9344 37.3398 85.8711L37.1974 82.8303L35.1833 83.0493L35.5381 85.7233C35.2664 85.8655 34.9679 85.949 34.6619 85.9686C34.3071 85.9938 33.8087 86.0179 33.1932 86.0179C32.5295 86.0179 32.0563 86.0179 31.7694 85.9938C31.5446 85.9755 31.3222 85.9344 31.1057 85.8711L30.9633 82.8303L28.9492 83.0493L29.3051 85.7233C29.0334 85.8655 28.7349 85.949 28.4289 85.9686C28.073 85.9938 27.5757 86.0179 26.9602 86.0179H26.8693C26.5685 86.0204 26.2678 86.0039 25.969 85.9686C25.8798 85.9561 25.794 85.9258 25.7166 85.8795C25.6393 85.8333 25.5721 85.7719 25.5189 85.6992C25.3807 85.4874 25.3065 85.2403 25.3053 84.9875L25.0917 83.173L23.0535 83.611L23.6219 88.2462C23.3114 88.8471 22.8751 89.3741 22.3427 89.7913C21.4544 90.4627 20.4924 91.0307 19.4753 91.4842L20.8729 93.5932C22.1667 92.9861 23.3265 92.1273 24.2845 91.067C24.9675 90.2227 25.3655 89.1839 25.4214 88.0995C25.5705 88.3036 25.7671 88.4684 25.9942 88.5794C26.2213 88.6905 26.472 88.7445 26.7247 88.7368H26.9613C27.5238 88.7498 28.0864 88.7169 28.6436 88.6382C28.9915 88.591 29.3285 88.4832 29.6392 88.3196C29.8822 88.1614 30.0785 87.9409 30.2076 87.6812C30.2819 87.881 30.402 88.0606 30.5584 88.2055C30.7148 88.3504 30.903 88.4566 31.1079 88.5156C31.7944 88.7027 32.5051 88.7853 33.2162 88.7609C33.7787 88.7739 34.3413 88.7414 34.8985 88.6634C35.2464 88.6156 35.5834 88.5074 35.8941 88.3437C36.1371 88.1858 36.3334 87.9658 36.4625 87.7064C36.5369 87.906 36.6571 88.0854 36.8134 88.2302C36.9698 88.3749 37.158 88.4809 37.3628 88.5397C38.0469 88.6826 38.7449 88.7484 39.4437 88.7357L39.4503 88.7412Z" fill="#F01436"/>
<path d="M45.9199 88.9854L47.7205 88.7401V77.1395L45.7063 77.5315L45.9199 88.9854Z" fill="#F01436"/>
<path d="M58.3102 80.4267L56.6751 79.0284L55.3005 80.7212L56.9357 82.1448L58.3102 80.4267Z" fill="#F01436"/>
<path d="M59.8271 82.021L61.2016 80.3282L59.5664 78.9046L58.1919 80.5975L59.8271 82.021Z" fill="#F01436"/>
<path d="M69.8026 87.7841C70.0006 87.6161 70.1571 87.4047 70.2599 87.1664C70.3626 86.928 70.4089 86.6691 70.3952 86.4099C70.4044 85.3174 70.1698 84.2367 69.7085 83.2464C69.2038 82.2361 68.4953 81.3412 67.6275 80.6183C67.4699 80.4743 67.2947 80.3506 67.1062 80.2504L68.9067 79.4905C69.5705 79.22 70.0918 78.9999 70.4236 78.8521L70.1389 76.6445C69.2857 76.9391 68.4325 77.2577 67.5804 77.6497C66.7513 78.0417 65.874 78.4841 64.9518 79.0229L64.9047 81.0585C65.8717 81.7357 66.7542 82.526 67.5333 83.4128C68.1196 84.0672 68.5061 84.8759 68.6472 85.743C67.331 85.9479 65.9985 86.0301 64.6671 85.9883C64.2183 86.0029 63.7701 85.9452 63.3396 85.8175L63.2214 83.2902L61.2499 83.5092L61.5106 85.6675C60.2011 85.9364 58.866 86.0598 57.5294 86.0354C56.5802 86.0354 55.8694 86.0109 55.397 85.962C55.0381 85.9511 54.6877 85.8498 54.3784 85.6675C54.2839 85.5911 54.2089 85.4934 54.1596 85.3825C54.1103 85.2715 54.0881 85.1503 54.0947 85.0291C54.1019 84.9058 54.1176 84.7833 54.1418 84.6622L54.4704 82.6014L52.8834 82.2828L52.5045 84.5889C52.4452 84.9208 52.4133 85.257 52.4092 85.5941C52.367 86.3094 52.5862 87.0156 53.0258 87.5815C53.4899 88.071 54.0939 88.4052 54.7552 88.5386C55.6661 88.7321 56.596 88.8225 57.5272 88.808C58.1767 88.8052 58.8255 88.7642 59.4702 88.6853C59.9912 88.6336 60.5065 88.5354 61.0101 88.3918C61.2511 88.3248 61.4821 88.2257 61.6968 88.0973C61.8579 88.0009 61.983 87.8544 62.0528 87.6801C62.1304 87.8644 62.2468 88.0299 62.394 88.1654C62.5412 88.3008 62.7158 88.4031 62.9059 88.4652C63.4537 88.6576 64.0319 88.7493 64.6123 88.7357C65.7226 88.768 66.8334 88.6946 67.9298 88.5167C68.6087 88.4455 69.2557 88.1924 69.8026 87.7841Z" fill="#F01436"/>
<path d="M72.9776 83.5902L73.5702 88.2254C73.2594 88.8261 72.8232 89.3531 72.2909 89.7705C71.4025 90.4416 70.4405 91.0096 69.4236 91.4634L70.8211 93.5724C71.8079 93.0941 72.7247 92.4833 73.5461 91.7568C74.1497 91.2262 74.6349 90.5744 74.9699 89.8438C75.2612 89.1448 75.4062 88.3935 75.3959 87.6363C75.3619 86.1267 75.2434 84.6201 75.0411 83.1237L72.9776 83.5902Z" fill="#F01436"/>
<path d="M87.9046 88.52C87.9993 88.3942 88.0716 88.2531 88.1182 88.1028C88.2562 87.5489 88.3279 86.9806 88.3318 86.4099C88.3368 85.7499 88.2256 85.0942 88.0032 84.4728C87.8209 83.9355 87.4924 83.4597 87.0547 83.0985C86.6536 82.7681 86.1506 82.5863 85.6309 82.5839C85.3606 82.5805 85.0925 82.6332 84.8437 82.7388C84.5948 82.8443 84.3706 83.0004 84.1852 83.1971C83.6746 83.7697 83.2802 84.4362 83.0242 85.1594C82.9472 85.3482 82.8518 85.529 82.7395 85.6992C82.6978 85.7576 82.6448 85.8071 82.5837 85.8447C82.5225 85.8823 82.4545 85.9073 82.3835 85.9182C82.1434 85.9758 81.8965 86.0005 81.6497 85.9916H80.3223C79.6827 85.9916 79.3508 85.5995 79.3508 84.8144V77.1395L77.3367 77.5315L77.4079 84.8407C77.3871 85.6525 77.524 86.4605 77.8109 87.2202C78.0085 87.7379 78.3876 88.166 78.8777 88.4247C79.4449 88.6713 80.06 88.7884 80.6782 88.7674H81.3179C81.7726 88.7808 82.227 88.7314 82.6683 88.6207C82.9804 88.5396 83.2661 88.3789 83.4974 88.1542L86.2464 89.3806C86.3516 89.4266 86.4619 89.4597 86.575 89.4792C86.8866 89.4255 87.1753 89.2802 87.4041 89.062C87.6199 88.8145 87.8105 88.6426 87.9046 88.52ZM86.6013 87.1709L84.3736 86.1657C84.6814 85.2831 85.0603 84.8659 85.4688 84.8659C85.6502 84.8554 85.8312 84.8929 85.9935 84.9746C86.1557 85.0563 86.2936 85.1793 86.3932 85.3313C86.6116 85.675 86.7191 86.0775 86.701 86.4843C86.7029 86.7169 86.6693 86.9484 86.6013 87.1709Z" fill="#F01436"/>
<path d="M94.8945 88.7412C96.0294 88.8319 97.1643 88.5662 98.1409 87.9812C98.4649 87.7589 98.7265 87.4573 98.9007 87.1051C99.075 86.753 99.1562 86.3621 99.1364 85.9697C99.1364 85.1605 99.1123 84.498 99.0893 83.9833C99.0663 83.4687 99.0181 82.8554 98.9469 82.1437L96.9328 82.5116L97.3117 85.7255C97.0312 85.8386 96.7363 85.9123 96.4356 85.9445C95.9163 86.0023 95.3939 86.0268 94.8715 86.0179H94.7763C94.4754 86.0204 94.1747 86.0039 93.876 85.9686C93.7868 85.956 93.701 85.9257 93.6237 85.8794C93.5463 85.8332 93.4791 85.7719 93.4258 85.6992C93.2876 85.4874 93.2135 85.2403 93.2123 84.9875L92.9987 83.173L90.9605 83.611L91.5289 88.2462C91.2182 88.847 90.7819 89.3739 90.2496 89.7913C89.3612 90.4625 88.3992 91.0305 87.3823 91.4842L88.7809 93.5932C90.0747 92.9861 91.2345 92.1273 92.1926 91.067C92.8752 90.2225 93.2731 89.1838 93.3295 88.0995C93.4785 88.3037 93.6751 88.4685 93.9022 88.5795C94.1293 88.6906 94.3801 88.7445 94.6328 88.7368L94.8945 88.7412Z" fill="#F01436"/>
<path d="M96.5286 91.8554L94.9657 90.4822L93.6624 92.1248L95.2264 93.4727L96.5286 91.8554Z" fill="#F01436"/>
<path d="M96.3872 92.0284L97.9512 93.3763L99.2787 91.7579L97.7146 90.4089L96.3872 92.0284Z" fill="#F01436"/>
<path d="M95.1079 94.6269L96.6478 96L97.9742 94.3816L96.3871 93.0325L95.1079 94.6269Z" fill="#F01436"/>
<path d="M118.114 82.7514C118.081 82.534 118.065 82.3144 118.066 82.0944L116.095 82.4864L116.474 85.7715C116.092 85.9272 115.681 86.0018 115.269 85.9905C115.053 86.0009 114.837 85.9757 114.629 85.916L114.582 83.1205L112.758 83.219L112.806 85.8186C112.471 85.9385 112.119 86.0047 111.763 86.0146C111.612 86.0173 111.46 86.0008 111.313 85.9653C111.265 85.9502 111.222 85.9248 111.185 85.891C111.148 85.8571 111.119 85.8155 111.101 85.7693C111.044 85.6122 111.02 85.4454 111.029 85.2787V83.7578H109.206V85.7452C108.64 85.927 108.048 86.0178 107.453 86.0146H106.529C106.465 85.0831 106.155 84.1855 105.629 83.4139C105.433 83.1076 105.163 82.8552 104.845 82.6796C104.526 82.5041 104.169 82.4109 103.805 82.4087C103.378 82.3979 102.957 82.5071 102.589 82.7239C102.221 82.9408 101.922 83.2565 101.724 83.6351C101.222 84.5875 100.962 85.6487 100.966 86.7253C100.967 86.8834 100.991 87.0407 101.038 87.1917C101.122 87.3969 101.225 87.594 101.345 87.7808C101.461 87.9812 101.596 88.17 101.747 88.3448C101.847 88.4451 101.969 88.5202 102.103 88.5638C102.509 88.6925 102.934 88.7506 103.359 88.7357C103.718 88.7336 104.076 88.6925 104.426 88.6131C103.988 89.1572 103.459 89.6217 102.862 89.9862C102.132 90.4522 101.353 90.8387 100.54 91.1393L101.867 93.2483C104.307 92.1697 105.777 90.6728 106.321 88.7105H107.434C107.948 88.7221 108.461 88.6482 108.951 88.4915C109.36 88.3611 109.712 88.0925 109.945 87.7316C110.095 88.0375 110.333 88.2917 110.629 88.4619C110.924 88.6322 111.263 88.7107 111.603 88.6875C112.001 88.6884 112.395 88.6141 112.764 88.4685C113.139 88.3175 113.449 88.0396 113.64 87.6834C113.709 87.8643 113.814 88.0293 113.948 88.1686C114.083 88.3079 114.244 88.4185 114.422 88.4937C114.838 88.6515 115.281 88.7259 115.726 88.7127C116.403 88.7232 117.058 88.4681 117.55 88.002C117.811 87.7294 118.011 87.405 118.137 87.0499C118.264 86.6948 118.314 86.3171 118.285 85.9412C118.289 84.8756 118.232 83.8106 118.114 82.7514ZM103.827 86.5041C103.33 86.5041 102.927 86.4789 102.666 86.4548C102.68 86.0052 102.785 85.5631 102.974 85.155C103.039 85.0221 103.14 84.9103 103.266 84.8327C103.391 84.7551 103.537 84.715 103.685 84.717C103.852 84.7157 104.017 84.7548 104.165 84.8311C104.314 84.9074 104.442 85.0185 104.538 85.155C104.786 85.5314 104.902 85.98 104.866 86.4296C104.523 86.4867 104.175 86.5134 103.827 86.5095V86.5041Z" fill="#F01436"/>
</g>
<defs>
<clipPath id="clip0">
<rect width="118.286" height="96" fill="white" transform="translate(-0.000244141)"/>
</clipPath>
</defs>
</svg>
